<svg xmlns="http://www.w3.org/2000/svg" width="824.832" height="640.486" viewBox="0 0 824.832 640.486">
  <g id="cake" transform="translate(0)">
    <path id="Path_130" data-name="Path 130" d="M569.051,108.443c-35.394,23.805-81.3,22.264-121.53,9.88S370.34,83.886,331.138,68.213A390.656,390.656,0,0,0,228.895,42.607c-49.953-5.49-105.74,1.2-140.547,39.681-38.76,42.853-35.784,120.148,6.14,159.491,21.324,20.01,49.246,29.83,73.6,45.455S214.978,328.8,212.9,358.956c-1.92,27.918-24.24,49.339-47.338,62.78-17.853,10.389-39.842,21.733-41.994,43.249-2.082,20.819,16.405,37.131,34.06,46.408,57.594,30.265,128.553,29.974,185.926-.763,20.471-10.967,39.286-25.549,60.753-34.1,56.36-22.44,118.465.15,178.145,8.409a370.23,370.23,0,0,0,151.52-10.595c29.556-8.386,59.221-21.206,79.985-45.089,14.972-17.222,24.3-39.016,33.057-60.54q14.007-34.43,26.928-69.343c5.171-13.973,10.259-28.216,11.595-43.164,2.421-27.092-7.774-53.868-21.657-76.732C830.924,125.2,775.413,87.03,715.328,77.334s-123.749,9.241-170.376,50.678" transform="translate(-61.065 -40.93)" fill="#6c63ff" opacity="0.1"/>
    <path id="Path_131" data-name="Path 131" d="M969.2,578.98l-2.788-1.612c2.606-4.506-4.388-23.685-10.162-33.344-4.006-6.7-6.518-12.792-7.682-18.623-1.853-9.284-.093-17.334,5.232-23.925,11.047-13.674,10.952-39.778,10.949-40.04l3.22-.029c.01,1.117.113,27.514-11.665,42.092-7.829,9.691-6.917,22.769,2.709,38.873C963.554,549.961,973.245,571.993,969.2,578.98Z" transform="translate(-314.105 -147.557)" fill="#d4d5e0"/>
    <path id="Path_132" data-name="Path 132" d="M1004.48,433.66c.731-26.153-16.468-47.851-38.415-48.464S925.734,405.287,925,431.439c-.709,25.393,15.484,46.584,36.515,48.356a13.887,13.887,0,0,1-3.258,7.15c-3.188,3.256,10.028.28,10.028.28a23.48,23.48,0,0,1-1.425-7.4C987.254,478.312,1003.78,458.432,1004.48,433.66Z" transform="translate(-314.105 -126.483)" fill="#507dbc"/>
    <path id="Path_133" data-name="Path 133" d="M936.574,451.12c-3.25-9.952-.253-19.945,6.689-22.945-.321.073-.641.16-.958.263-7.6,2.482-11.01,12.913-7.618,23.3,3.293,10.084,11.788,16.417,19.234,14.5C954.073,467.031,939.861,461.187,936.574,451.12Z" transform="translate(-314.105 -129.159)" fill="#fff" opacity="0.2"/>
    <path id="Path_134" data-name="Path 134" d="M985.7,615.216l3.217.136c.219-5.2,16.414-17.63,26.469-22.681,6.976-3.5,12.366-7.3,16.477-11.591,6.546-6.839,9.381-14.576,8.426-23-1.983-17.467,12.108-39.441,12.25-39.661l-2.7-1.752c-.608.937-14.862,23.155-12.748,41.777,1.4,12.378-6.383,22.925-23.148,31.346C1006.04,593.761,986.041,607.15,985.7,615.216Z" transform="translate(-314.105 -158.403)" fill="#d4d5e0"/>
    <path id="Path_135" data-name="Path 135" d="M1033.93,473.666c13.419-22.46,39.577-31.537,58.424-20.276s23.248,38.6,9.828,61.057c-13.029,21.807-38.067,31-56.762,21.2a13.889,13.889,0,0,0-1.088,7.782c.943,4.459-8.612-5.146-8.612-5.146a23.481,23.481,0,0,0,5.176-5.483C1024.5,520.586,1021.22,494.94,1033.93,473.666Z" transform="translate(-314.105 -141.218)" fill="#507dbc"/>
    <path id="Path_136" data-name="Path 136" d="M1081.85,524.842c8.084-6.653,10.918-16.693,6.67-22.951q.348.351.667.736c5.08,6.172,2.359,16.8-6.076,23.747-8.191,6.741-18.757,7.525-24.014,1.916C1058.55,528.875,1073.68,531.572,1081.85,524.842Z" transform="translate(-314.105 -144.852)" fill="#fff" opacity="0.2"/>
    <path id="Path_137" data-name="Path 137" d="M413.762,745.008l-3.217.136c-.219-5.2-16.414-17.63-26.469-22.681-6.976-3.5-12.366-7.3-16.477-11.591-6.546-6.839-9.381-14.576-8.426-23,1.983-17.467-12.108-39.441-12.25-39.661l2.7-1.753c.608.937,14.862,23.155,12.748,41.777-1.4,12.378,6.383,22.925,23.148,31.346C393.421,723.554,413.422,736.943,413.762,745.008Z" transform="translate(-132.609 -218.584)" fill="#d4d5e0"/>
    <path id="Path_138" data-name="Path 138" d="M365.533,603.458c-13.419-22.459-39.577-31.537-58.424-20.276s-23.248,38.6-9.828,61.057c13.029,21.807,38.067,31,56.762,21.2a13.888,13.888,0,0,1,1.088,7.782c-.943,4.459,8.612-5.145,8.612-5.145a23.478,23.478,0,0,1-5.176-5.483C374.965,650.378,378.244,624.732,365.533,603.458Z" transform="translate(-119.215 -173.151)" fill="#507dbc"/>
    <path id="Path_139" data-name="Path 139" d="M317.609,654.634c-8.084-6.653-10.918-16.693-6.67-22.951-.232.234-.455.479-.667.736-5.08,6.172-2.36,16.8,6.076,23.747,8.191,6.741,18.757,7.525,24.014,1.916C340.914,658.668,325.785,661.364,317.609,654.634Z" transform="translate(-120.777 -174.113)" fill="#fff" opacity="0.2"/>
    <path id="Path_140" data-name="Path 140" d="M519.762,407.008l-3.217.136c-.219-5.2-16.414-17.63-26.469-22.681-6.976-3.5-12.366-7.3-16.477-11.591-6.546-6.839-9.381-14.576-8.426-23,1.983-17.467-12.108-39.441-12.25-39.661l2.7-1.752c.608.937,14.862,23.155,12.748,41.777-1.4,12.378,6.383,22.925,23.148,31.346C499.421,385.554,519.422,398.943,519.762,407.008Z" transform="translate(-159.139 -106.991)" fill="#d4d5e0"/>
    <path id="Path_141" data-name="Path 141" d="M471.533,265.458c-13.419-22.46-39.577-31.537-58.424-20.276s-23.248,38.6-9.828,61.057c13.029,21.807,38.067,31,56.762,21.2a13.887,13.887,0,0,1,1.088,7.782c-.943,4.459,8.612-5.145,8.612-5.145a23.479,23.479,0,0,1-5.176-5.483C480.965,312.378,484.244,286.732,471.533,265.458Z" transform="translate(-146.197 -89.993)" fill="#507dbc"/>
    <path id="Path_142" data-name="Path 142" d="M423.609,316.634c-8.084-6.653-10.918-16.693-6.67-22.951-.232.234-.455.478-.667.736-5.08,6.172-2.36,16.8,6.076,23.747,8.191,6.741,18.757,7.525,24.014,1.916C446.914,320.668,431.785,323.364,423.609,316.634Z" transform="translate(-146.44 -97.912)" fill="#fff" opacity="0.2"/>
    <path id="Path_143" data-name="Path 143" d="M482.762,550.008l-3.217.136c-.219-5.2-16.414-17.63-26.469-22.681-6.976-3.5-12.366-7.3-16.477-11.591-6.546-6.839-9.381-14.576-8.426-23,1.983-17.467-12.108-39.441-12.25-39.661l2.7-1.752c.608.937,14.862,23.155,12.748,41.777-1.4,12.378,6.383,22.925,23.148,31.346C462.421,528.554,482.422,541.943,482.762,550.008Z" transform="translate(-149.878 -142.302)" fill="#d4d5e0"/>
    <path id="Path_144" data-name="Path 144" d="M434.533,408.458c-13.419-22.46-39.577-31.537-58.424-20.276s-23.248,38.6-9.828,61.057c13.029,21.807,38.067,31,56.762,21.2a13.887,13.887,0,0,1,1.088,7.782c-.943,4.459,8.612-5.146,8.612-5.146a23.479,23.479,0,0,1-5.176-5.483C443.965,455.378,447.244,429.732,434.533,408.458Z" transform="translate(-136.779 -125.175)" fill="#507dbc"/>
    <path id="Path_145" data-name="Path 145" d="M386.609,459.634c-8.084-6.653-10.918-16.693-6.67-22.951-.232.234-.455.478-.667.736-5.08,6.172-2.36,16.8,6.076,23.747,8.191,6.741,18.757,7.525,24.014,1.916C409.914,463.668,394.785,466.364,386.609,459.634Z" transform="translate(-137.482 -130.151)" fill="#fff" opacity="0.2"/>
    <path id="Path_146" data-name="Path 146" d="M926.7,739.255l-2.044-2.489c4.023-3.3,4.213-23.717,2.2-34.788-1.4-7.681-1.608-14.267-.649-20.135,1.527-9.343,6-16.261,13.3-20.562,15.147-8.921,24.229-33.394,24.319-33.64l3.025,1.1c-.383,1.049-9.561,25.8-25.71,35.311-10.734,6.322-14.476,18.887-11.121,37.346C931.6,710.1,932.933,734.133,926.7,739.255Z" transform="translate(-314.105 -218.584)" fill="#d4d5e0"/>
    <path id="Path_147" data-name="Path 147" d="M1010.78,615.592c9.873-24.229,1.394-50.586-18.938-58.872s-44.818,4.64-54.691,28.869c-9.586,23.525-1.87,49.055,17.2,58.1a13.887,13.887,0,0,1-5.563,5.55c-4.129,1.928,9.29,3.786,9.29,3.786a23.481,23.481,0,0,1,1.268-7.433C978.964,651.346,1001.43,638.542,1010.78,615.592Z" transform="translate(-314.105 -167.697)" fill="#507dbc"/>
    <path id="Path_148" data-name="Path 148" d="M941.068,608.082c.454-10.46,6.771-18.762,14.325-19.132-.326-.044-.656-.076-.989-.09-7.986-.346-14.844,8.221-15.318,19.136-.46,10.6,5.269,19.512,12.912,20.338C951.862,629.127,940.609,618.662,941.068,608.082Z" transform="translate(-314.105 -165.947)" fill="#fff" opacity="0.2"/>
    <ellipse id="Ellipse_28" data-name="Ellipse 28" cx="302.444" cy="22.476" rx="302.444" ry="22.476" transform="translate(140.917 506.582)" fill="#6c63ff" opacity="0.1"/>
    <path id="Path_149" data-name="Path 149" d="M580.006,121.167V156.5h3.7V119.458Z" transform="translate(-136.631 0)" fill="#53425a"/>
    <path id="Path_150" data-name="Path 150" d="M655.792,130.569v32.765h5.129l-1.14-36.469Z" transform="translate(-154.689 0)" fill="#53425a"/>
    <path id="Path_151" data-name="Path 151" d="M509.919,136.837l-3.419,3.7v31.91h3.419Z" transform="translate(-119.284 -31.066)" fill="#53425a"/>
    <path id="Path_152" data-name="Path 152" d="M585.229,271.785H563.006V207.971H580.1a8.56,8.56,0,0,0-.393,1.513c-.667,3.667-.462,10.582.162,18.5C581.357,246.981,585.229,271.785,585.229,271.785Z" transform="translate(-181.381 -80.271)" fill="#6c63ff"/>
    <path id="Path_153" data-name="Path 153" d="M662.727,271.785,634.8,275.2V192.013H652.47c-.12.94-.2,2.009-.239,3.2a140.551,140.551,0,0,0,1.1,18.778c.6,5.419,1.385,11.24,2.248,17.026.667,4.487,1.385,8.949,2.094,13.2C660.24,259.451,662.727,271.785,662.727,271.785Z" transform="translate(-199.337 -77.45)" fill="#6c63ff"/>
    <path id="Path_154" data-name="Path 154" d="M737.943,263.238l-27.351,2.282V198.851h18.8c-.667,1.419-.957,3.812-.966,6.855a122.571,122.571,0,0,0,1.47,16.419C732.567,240.8,737.943,263.238,737.943,263.238Z" transform="translate(-217.517 -78.264)" fill="#6c63ff"/>
    <path id="Path_155" data-name="Path 155" d="M575.542,113.093s1.709,6.838-16.24,25.642-10.827,56.7,8.262,55.557c0,0,17.846,2.944,24.265-9.205a16.268,16.268,0,0,0-1.139-16.669c-5.9-8.687-17.276-26.943-15.148-35.666Z" transform="translate(-180.551 -40.93)" fill="#ffc13d"/>
    <path id="Path_156" data-name="Path 156" d="M571.933,138.935s1.068,4.271-10.143,16.016-6.762,35.413,5.161,34.7c0,0,11.4,1.88,15.287-6.006a10.182,10.182,0,0,0-.855-10.174c-3.482-5.13-10-15.563-9.595-21.293.063-.9.146-1.79.146-2.687Z" transform="translate(-180.179 -40.93)" fill="#fff" opacity="0.5"/>
    <path id="Path_157" data-name="Path 157" d="M723.679,104.517s1.709,6.838-16.24,25.642-10.827,56.7,8.262,55.557c0,0,17.846,2.944,24.265-9.205a16.268,16.268,0,0,0-1.139-16.669c-5.9-8.687-17.276-26.943-15.148-35.666Z" transform="translate(-216.83 -40.93)" fill="#ffc13d"/>
    <path id="Path_158" data-name="Path 158" d="M721.414,145.274s.8,3.2-7.6,12-5.067,26.535,3.867,26c0,0,8.352,1.378,11.356-4.308a7.613,7.613,0,0,0-.533-7.8c-2.761-4.066-8.085-12.61-7.09-16.692Z" transform="translate(-216.174 -40.93)" fill="#fff" opacity="0.5"/>
    <path id="Path_159" data-name="Path 159" d="M648.1,79.787s2.079,8.315-19.748,31.181-13.165,68.944,10.047,67.558c0,0,21.7,3.579,29.506-11.194a19.782,19.782,0,0,0-1.385-20.27c-7.173-10.563-21.008-32.762-18.421-43.37Z" transform="translate(-198.194 -40.93)" fill="#ffc13d"/>
    <path id="Path_160" data-name="Path 160" d="M645.812,121.059s1.16,4.639-11.018,17.4-7.345,38.465,5.605,37.692c0,0,12.107,2,16.462-6.245a11.036,11.036,0,0,0-.773-11.309c-4-5.893-11.721-18.279-10.277-24.2Z" transform="translate(-197.952 -40.93)" fill="#fff" opacity="0.5"/>
    <path id="Path_161" data-name="Path 161" d="M579.87,227.989c-5.222,5.5-12.436,15.334-16.864,21.565V227.006c4.881-5.881,11.872-12.864,16.7-17.522C579.041,213.151,579.246,220.065,579.87,227.989Z" transform="translate(-180.773 -79.415)" fill="#fff" opacity="0.5"/>
    <path id="Path_162" data-name="Path 162" d="M653.334,213.988a199.169,199.169,0,0,0-18.53,16.855V209.287a99.759,99.759,0,0,1,17.428-14.077,140.561,140.561,0,0,0,1.1,18.778Z" transform="translate(-198.111 -75.957)" fill="#fff" opacity="0.5"/>
    <path id="Path_163" data-name="Path 163" d="M657.676,244.211c-6.864,6.017-16.308,14.573-22.873,20.539V249.323c6.855-6.308,15.24-13.573,20.779-18.308C656.248,235.5,656.966,239.963,657.676,244.211Z" transform="translate(-198.675 -83.981)" fill="#6c63ff"/>
    <path id="Path_164" data-name="Path 164" d="M729.9,222.125c-6.59,5.522-14.231,13.112-19.308,18.334v-21.5c5.393-5.368,12.547-10.111,17.838-13.257a122.564,122.564,0,0,0,1.47,16.419Z" transform="translate(-216.328 -78.298)" fill="#fff" opacity="0.5"/>
    <rect id="Rectangle_327" data-name="Rectangle 327" width="278.924" height="127.645" transform="translate(310.07 182.886)" fill="#c99398"/>
    <path id="Path_165" data-name="Path 165" d="M793.783,287.17v19.214c-5.333,1.034-12.325-.564-18.18-2.521A24.17,24.17,0,0,0,754.7,306.5c-16.069,10.5-28.616,8.282-37.369,3.06a32.191,32.191,0,0,0-29.129-2.248,31.627,31.627,0,0,1-12.915,2.368,27.267,27.267,0,0,0-14.659,4.043c-13.2,7.992-26.351,3.368-34.617-1.462a24.4,24.4,0,0,0-17.9-2.581,25.785,25.785,0,0,1-7.949.65,29.825,29.825,0,0,0-17.556,3.786c-21.787,12.727-28.984-2.727-33.275-5-4.846-2.564-5.41,6.265-6.838,6.265s-6.265-11.676-7.41-7.693c-.53,1.872-5.017,4.12-9.633,5.983a19.218,19.218,0,0,1-10.59,1.094V287.17Z" transform="translate(-204.789 -96.57)" opacity="0.1"/>
    <path id="Path_166" data-name="Path 166" d="M525.973,261.722s-45.714,20.4-21.32,45.891a19,19,0,0,0,20.8,4.343c4.612-1.859,9.1-4.107,9.634-5.979,1.14-3.989,5.983,7.693,7.408,7.693s1.994-8.832,6.838-6.268c4.29,2.271,11.486,17.731,33.27,5a29.88,29.88,0,0,1,17.564-3.784,25.575,25.575,0,0,0,7.943-.651,24.428,24.428,0,0,1,17.9,2.58c8.265,4.83,21.421,9.453,34.614,1.468a27.261,27.261,0,0,1,14.663-4.049,31.466,31.466,0,0,0,12.91-2.369,32.237,32.237,0,0,1,29.133,2.249c8.752,5.229,21.3,7.448,37.367-3.054a24.144,24.144,0,0,1,20.9-2.639c11.684,3.914,27.919,6.41,26.447-10.7-2.28-26.5-33.62-34.19-46.726-34.474s-34.759-2.564-59.261,0-74.362,2.279-74.362,2.279S537.977,255.928,525.973,261.722Z" transform="translate(-203.886 -91.38)" fill="#f8f8fa"/>
    <rect id="Rectangle_328" data-name="Rectangle 328" width="397.877" height="156.27" transform="translate(249.148 273.53)" fill="#c99398"/>
    <path id="Path_167" data-name="Path 167" d="M793.783,388.156v26.659H638.675q-.4-.051-.795-.077a20.871,20.871,0,0,0-3.94.077H514.859v-23.77c12.975,1.581,26.061,3.59,38.959,3.539,17.12-.077,34.035-3.633,51.19-2.675,59.976,3.333,121.047,4.325,180.784-2.778C788.449,388.815,791.116,388.481,793.783,388.156Z" transform="translate(-204.789 -118.868)" opacity="0.1"/>
    <path id="Path_168" data-name="Path 168" d="M855.751,414.815V428.91c-4.325-.547-8.487-2.274-12.667-3.641-3.769-1.231-7.846-2.188-11.676-1.171-2.017.538-3.855,1.6-5.846,2.214-8.325,2.6-17.009-2.812-25.736-2.846-8.65-.034-16.385,5.18-24.83,7.077-13.052,2.932-26.394-2.214-38.9-6.983-5.06-1.923-10.924-3.761-15.65-1.128-2.077,1.154-3.641,3.051-5.667,4.3-5.923,3.658-13.676.8-19.582-2.889-3.735-2.333-8.257-5.077-12.2-3.111-2.034,1.009-3.308,3.051-4.992,4.564-5.333,4.778-13.727,3.5-20.266.59s-12.735-7.2-19.864-7.727c-10.052-.761-18.855,6.017-27.625,10.983s-20.932,7.906-28.086.795c-2.368-2.351-4.12-5.752-7.359-6.564-5.359-1.333-9.385,5.3-14.787,6.462-6.658,1.436-12.077-5.65-18.753-7.043-6.906-1.444-13.334,3.359-19.428,6.906s-14.949,5.547-19.368.051c-1.41-1.752-2.18-4.111-4.111-5.274a8.24,8.24,0,0,0-4.752-.761,48.289,48.289,0,0,0-16.761,4.009c-6.086,2.684-11.975,6.71-18.616,6.581-.12,0-.239-.009-.359-.017V414.815Z" transform="translate(-208.726 -124.098)" opacity="0.1"/>
    <path id="Path_169" data-name="Path 169" d="M553.814,396.293c-30.52.129-62.043-11.314-90.817-1.137-10.44,3.693-21.029,12.43-19.928,23.449A16.082,16.082,0,0,0,458.231,432.6c6.646.128,12.534-3.9,18.616-6.582A48.239,48.239,0,0,1,493.614,422a8.288,8.288,0,0,1,4.753.767c1.928,1.157,2.7,3.522,4.109,5.274,4.421,5.5,13.27,3.495,19.365-.053s12.526-8.353,19.43-6.911c6.67,1.394,12.09,8.483,18.751,7.046,5.4-1.164,9.425-7.792,14.786-6.458,3.244.807,4.993,4.207,7.364,6.564,7.148,7.107,19.312,4.169,28.082-.8s17.572-11.742,27.623-10.987c7.133.536,13.333,4.828,19.87,7.732s14.933,4.184,20.26-.589c1.689-1.513,2.963-3.56,4.993-4.571,3.939-1.959,8.463.784,12.194,3.115,5.908,3.691,13.662,6.548,19.589,2.887,2.019-1.247,3.588-3.144,5.661-4.3,4.728-2.633,10.6-.8,15.652,1.133,12.5,4.767,25.849,9.914,38.9,6.978,8.437-1.9,16.18-7.106,24.827-7.074,8.723.032,17.408,5.444,25.736,2.848,1.989-.62,3.827-1.677,5.841-2.213,3.836-1.022,7.907-.066,11.68,1.168,5.006,1.637,9.991,3.792,15.258,3.808s11.028-2.86,12.288-7.974c.965-3.915-.915-7.973-3.259-11.253-8.515-11.91-23.279-18.04-37.829-19.669s-29.213.644-43.751,2.372c-59.739,7.1-120.811,6.11-180.782,2.775C587.855,392.664,570.937,396.22,553.814,396.293Z" transform="translate(-209.751 -120.628)" fill="#f8f8fa"/>
    <rect id="Rectangle_329" data-name="Rectangle 329" width="439.938" height="181.203" transform="translate(223.168 338.399)" fill="#c99398"/>
    <path id="Path_170" data-name="Path 170" d="M872.837,552.017a519.31,519.31,0,0,1-66.729,9.915,45.844,45.844,0,0,0-22.513,1.718c-.137.043-.273.085-.41.137-13.864,4.906-25.8,16.539-40.5,16.351-11.735-.154-21.881-7.906-33.155-11.154a42.232,42.232,0,0,0-9.9-1.616,43.424,43.424,0,0,0-6.829.188c-13.633.359-27.266.5-40.9.222-20-.4-39.959-1.727-59.917-3.043l-64-4.231-60.216-3.974q-7.385-.487-14.787-.983c-5.308-.35-9.248.795-11.394-3.949-2.547-5.675-.3-11.325,2.821-16.266,2.684.051,5.376.239,8.052.427q60.976,4.3,121.927,8.889l-6.248,1.1a682.063,682.063,0,0,1,128.363-7.941c20.043.658,40.2,2.2,60.1-.359,13.983-1.795,27.685-5.59,41.737-6.778,19.3-1.633,38.642,1.7,57.737,5.026a116.129,116.129,0,0,1,11.932,2.53C869.025,543.119,870.162,548,872.837,552.017Z" transform="translate(-209.796 -154.082)" opacity="0.1"/>
    <path id="Path_171" data-name="Path 171" d="M870.888,556.983v17.035c-5.487-.812-10.864-1.615-14.2,2.282-1.564,1.838-2.171,4.333-3.692,6.214-3.137,3.872-9.265,3.863-13.744,1.667s-7.881-6.043-11.735-9.205a46.661,46.661,0,0,0-44.335-7.77c-13.864,4.906-25.8,16.539-40.5,16.351-11.735-.154-21.881-7.906-33.155-11.154a44.79,44.79,0,0,0-37.779,6.419c-7.983,5.667-15.522,14.462-25.24,13.342-5.094-.59-9.376-3.906-13.7-6.667a72.9,72.9,0,0,0-28.693-10.633c-4.453-.633-9.18-.821-13.282,1.026-5.171,2.333-8.513,7.487-13.317,10.513-11.154,7.017-25.616.684-37.112-5.752s-25.736-13.026-37.13-6.41c-2.684,1.556-4.983,3.778-7.821,5.026C479.43,586.3,463.7,559.2,447.25,565.188c-3.71,1.35-6.667,4.265-10.317,5.769a12.368,12.368,0,0,1-5.983.838V556.983Z" transform="translate(-207.782 -158.037)" opacity="0.1"/>
    <path id="Path_172" data-name="Path 172" d="M574.4,546.355q-60.954-4.587-121.93-8.885c-7.058-.5-14.3-.974-21.081,1.041s-13.121,7.081-14.572,14.006c-2.194,10.47,10.231,20.8,20.124,16.727,3.651-1.5,6.607-4.42,10.317-5.77,16.442-5.984,32.18,21.113,48.2,14.078,2.841-1.248,5.138-3.462,7.821-5.02,11.4-6.617,25.629-.024,37.129,6.412s25.962,12.762,37.118,5.746c4.8-3.022,8.141-8.176,13.316-10.508,4.1-1.85,8.825-1.663,13.281-1.025a72.774,72.774,0,0,1,28.7,10.633c4.324,2.756,8.607,6.07,13.7,6.66,9.719,1.125,17.26-7.676,25.237-13.34a44.82,44.82,0,0,1,37.781-6.422c11.272,3.25,21.421,11,33.152,11.157,14.7.191,26.636-11.443,40.5-16.352a46.685,46.685,0,0,1,44.34,7.772c3.854,3.165,7.26,7.005,11.736,9.2s10.6,2.208,13.744-1.666c1.521-1.876,2.122-4.377,3.692-6.213,6.417-7.5,20.392,2.412,28.172-3.665a10.653,10.653,0,0,0,3.561-5.863c1.95-7.774-2.933-15.968-9.622-20.384s-14.837-5.889-22.733-7.265c-19.087-3.326-38.429-6.665-57.735-5.032-14.05,1.189-27.751,4.989-41.737,6.784-19.894,2.553-40.049,1.016-60.1.359a682.05,682.05,0,0,0-128.365,7.936" transform="translate(-209.609 -155.778)" fill="#f8f8fa"/>
    <path id="Path_173" data-name="Path 173" d="M870.888,688.85v42.574q-25.257,1.295-50.523,2.573c-27.2,1.385-54.421,2.769-81.644,2.239-23.009-.453-45.967-2.265-68.968-2.983-48.361-1.5-96.858,1.872-145.082-2-15.436-1.239-30.822-3.214-46.284-4.094a340.61,340.61,0,0,0-47.437.684V687.731a37.317,37.317,0,0,1,4.368-.1,55.849,55.849,0,0,1,22.026,5.325c5.393,2.556,10.5,6.026,16.385,7.043,15.3,2.641,28.591-11.812,44.078-12.966,12.471-.923,23.676,6.812,34.377,13.282,2.06,1.239,4.351,2.487,6.718,2.137,1.983-.291,3.615-1.65,5.231-2.838,15.266-11.265,38.523-9.9,52.352,3.086,1.5,1.4,3,2.983,4.983,3.5,3.923,1.043,7.445-2.359,10.556-4.974,16.855-14.214,42.831-9.94,62.173.658,3.581,1.957,7.547,4.188,11.5,3.163,2.65-.684,4.692-2.718,6.812-4.453,16.471-13.513,41.241-11,60.515-1.915,1.863.88,3.829,1.829,5.872,1.6,2.453-.291,4.333-2.18,6.222-3.761a31.736,31.736,0,0,1,33.377-4.137c3.043,1.462,5.863,3.436,9.094,4.428,9.205,2.812,18.556-2.906,27.745-5.8A47.669,47.669,0,0,1,870.888,688.85Z" transform="translate(-207.782 -218.584)" opacity="0.1"/>
    <path id="Path_174" data-name="Path 174" d="M917.249,730.775q-48.438,2.474-96.884,4.932c-27.2,1.385-54.421,2.769-81.644,2.239-23.009-.453-45.967-2.265-68.968-2.983-48.361-1.5-96.858,1.872-145.082-2-15.436-1.239-30.822-3.214-46.284-4.094a344.314,344.314,0,0,0-52.19,1.1c-3.71.35-9.419,2.205-13.009,1.479-3.872-.786-2.393-1.231-1.128-4.9a32.429,32.429,0,0,0,.957-3.325c1.06-4.487,1.256-9.017,1.692-13.676.564-5.949,1.436-12.5,6.359-16.539,3.872-3.188,9.231-3.838,14.248-3.675a55.849,55.849,0,0,1,22.026,5.325c5.393,2.556,10.5,6.026,16.385,7.043,15.3,2.641,28.591-11.812,44.078-12.966,12.471-.923,23.676,6.812,34.377,13.282,2.06,1.239,4.351,2.487,6.718,2.137,1.983-.291,3.615-1.65,5.231-2.838,15.266-11.265,38.523-9.9,52.352,3.086,1.5,1.4,3,2.983,4.983,3.5,3.923,1.043,7.445-2.359,10.556-4.974,16.855-14.214,42.831-9.94,62.173.658,3.581,1.957,7.547,4.188,11.5,3.163,2.65-.684,4.692-2.718,6.812-4.453,16.471-13.513,41.241-11,60.515-1.915,1.863.88,3.829,1.829,5.872,1.6,2.453-.291,4.333-2.18,6.222-3.761A31.736,31.736,0,0,1,818.5,694.09c3.043,1.462,5.863,3.436,9.094,4.428,9.205,2.812,18.556-2.906,27.745-5.8a48.037,48.037,0,0,1,60,30.514,45.819,45.819,0,0,1,1.906,7.547Z" transform="translate(-215.918 -218.584)" fill="#f8f8fa"/>
    <path id="Path_175" data-name="Path 175" d="M917.249,730.775q-48.438,2.474-96.884,4.932c-27.2,1.385-54.421,2.769-81.644,2.239-23.009-.453-45.967-2.265-68.968-2.983-48.361-1.5-96.858,1.872-145.082-2-15.436-1.239-30.822-3.214-46.284-4.094a344.314,344.314,0,0,0-52.19,1.1c-3.71.35-9.419,2.205-13.009,1.479-3.872-.786-2.393-1.231-1.128-4.9a32.429,32.429,0,0,0,.957-3.325H915.343a45.816,45.816,0,0,1,1.906,7.547Z" transform="translate(-215.918 -218.584)" opacity="0.1"/>
    <path id="Path_176" data-name="Path 176" d="M339.482,683.152H861.843a17.034,17.034,0,0,1,17.034,17.034v2.2H322.448v-2.2A17.034,17.034,0,0,1,339.482,683.152Z" transform="translate(-156.474 -177.653)" fill="#d4d5e0"/>
    <rect id="Rectangle_330" data-name="Rectangle 330" width="3.134" height="8.658" rx="1.388" transform="translate(356.903 183.16) rotate(16.713)" fill="#6c63ff"/>
    <rect id="Rectangle_331" data-name="Rectangle 331" width="3.134" height="8.658" rx="1.388" transform="translate(322.091 281.074) rotate(16.713)" fill="#6c63ff"/>
    <rect id="Rectangle_332" data-name="Rectangle 332" width="3.134" height="8.658" rx="1.388" transform="translate(284.807 394.451) rotate(16.713)" fill="#6c63ff"/>
    <rect id="Rectangle_333" data-name="Rectangle 333" width="3.134" height="8.658" rx="1.388" transform="translate(378.033 401.981) rotate(16.713)" fill="#6c63ff"/>
    <rect id="Rectangle_334" data-name="Rectangle 334" width="3.134" height="8.658" rx="1.388" transform="translate(433.386 397.738) rotate(16.713)" fill="#6c63ff"/>
    <rect id="Rectangle_335" data-name="Rectangle 335" width="3.134" height="8.658" rx="1.388" transform="translate(511.412 406.339) rotate(16.713)" fill="#6c63ff"/>
    <rect id="Rectangle_336" data-name="Rectangle 336" width="3.134" height="8.658" rx="1.388" transform="translate(564.778 393.769) rotate(16.713)" fill="#6c63ff"/>
    <rect id="Rectangle_337" data-name="Rectangle 337" width="3.134" height="8.658" rx="1.388" transform="translate(330.402 399.135) rotate(16.713)" fill="#6c63ff"/>
    <rect id="Rectangle_338" data-name="Rectangle 338" width="3.134" height="8.658" rx="1.388" transform="translate(443.543 410.556) rotate(16.713)" fill="#6c63ff"/>
    <rect id="Rectangle_339" data-name="Rectangle 339" width="3.134" height="8.658" rx="1.388" transform="translate(490.23 397.738) rotate(16.713)" fill="#6c63ff"/>
    <rect id="Rectangle_340" data-name="Rectangle 340" width="3.134" height="8.658" rx="1.388" transform="translate(588.831 393.769) rotate(16.713)" fill="#6c63ff"/>
    <rect id="Rectangle_341" data-name="Rectangle 341" width="3.134" height="8.658" rx="1.388" transform="matrix(0.592, -0.806, 0.806, 0.592, 475.067, 185.037)" fill="#6c63ff"/>
    <rect id="Rectangle_342" data-name="Rectangle 342" width="3.134" height="8.658" rx="1.388" transform="matrix(0.592, -0.806, 0.806, 0.592, 446.023, 182.817)" fill="#6c63ff"/>
    <rect id="Rectangle_343" data-name="Rectangle 343" width="3.134" height="8.658" rx="1.388" transform="matrix(0.592, -0.806, 0.806, 0.592, 398.863, 182.817)" fill="#6c63ff"/>
    <rect id="Rectangle_344" data-name="Rectangle 344" width="3.134" height="8.658" rx="1.388" transform="matrix(0.592, -0.806, 0.806, 0.592, 336.039, 281.062)" fill="#6c63ff"/>
    <rect id="Rectangle_345" data-name="Rectangle 345" width="3.134" height="8.658" rx="1.388" transform="matrix(0.592, -0.806, 0.806, 0.592, 339.621, 290.987)" fill="#6c63ff"/>
    <rect id="Rectangle_346" data-name="Rectangle 346" width="3.134" height="8.658" rx="1.388" transform="matrix(0.592, -0.806, 0.806, 0.592, 417.147, 281.85)" fill="#6c63ff"/>
    <rect id="Rectangle_347" data-name="Rectangle 347" width="3.134" height="8.658" rx="1.388" transform="matrix(0.592, -0.806, 0.806, 0.592, 386.395, 411.02)" fill="#6c63ff"/>
    <rect id="Rectangle_348" data-name="Rectangle 348" width="3.134" height="8.658" rx="1.388" transform="matrix(0.592, -0.806, 0.806, 0.592, 501.112, 286.967)" fill="#6c63ff"/>
    <rect id="Rectangle_349" data-name="Rectangle 349" width="3.134" height="8.658" rx="1.388" transform="matrix(0.592, -0.806, 0.806, 0.592, 535.645, 291.655)" fill="#6c63ff"/>
    <rect id="Rectangle_350" data-name="Rectangle 350" width="3.134" height="8.658" rx="1.388" transform="matrix(0.592, -0.806, 0.806, 0.592, 525.196, 397.106)" fill="#6c63ff"/>
    <rect id="Rectangle_351" data-name="Rectangle 351" width="3.134" height="8.658" rx="1.388" transform="matrix(0.592, -0.806, 0.806, 0.592, 596.365, 409.659)" fill="#6c63ff"/>
    <rect id="Rectangle_352" data-name="Rectangle 352" width="3.134" height="8.658" rx="1.388" transform="matrix(0.592, -0.806, 0.806, 0.592, 354.985, 402.475)" fill="#6c63ff"/>
    <rect id="Rectangle_353" data-name="Rectangle 353" width="3.134" height="8.658" rx="1.388" transform="matrix(0.592, -0.806, 0.806, 0.592, 303.163, 397.788)" fill="#6c63ff"/>
    <rect id="Rectangle_354" data-name="Rectangle 354" width="3.134" height="8.658" rx="1.388" transform="matrix(0.592, -0.806, 0.806, 0.592, 405.999, 405.99)" fill="#6c63ff"/>
    <rect id="Rectangle_355" data-name="Rectangle 355" width="3.134" height="8.658" rx="1.388" transform="matrix(0.592, -0.806, 0.806, 0.592, 461.486, 402.475)" fill="#6c63ff"/>
    <rect id="Rectangle_356" data-name="Rectangle 356" width="3.134" height="8.658" rx="1.388" transform="matrix(0.578, 0.816, -0.816, 0.578, 538.487, 185.563)" fill="#6c63ff"/>
    <rect id="Rectangle_357" data-name="Rectangle 357" width="3.134" height="8.658" rx="1.388" transform="matrix(0.578, 0.816, -0.816, 0.578, 477.289, 194.772)" fill="#6c63ff"/>
    <rect id="Rectangle_358" data-name="Rectangle 358" width="3.134" height="8.658" rx="1.388" transform="matrix(0.578, 0.816, -0.816, 0.578, 376.081, 285.428)" fill="#6c63ff"/>
    <rect id="Rectangle_359" data-name="Rectangle 359" width="3.134" height="8.658" rx="1.388" transform="matrix(0.578, 0.816, -0.816, 0.578, 406.681, 288.507)" fill="#6c63ff"/>
    <rect id="Rectangle_360" data-name="Rectangle 360" width="3.134" height="8.658" rx="1.388" transform="matrix(0.578, 0.816, -0.816, 0.578, 465.835, 288.507)" fill="#6c63ff"/>
    <rect id="Rectangle_361" data-name="Rectangle 361" width="3.134" height="8.658" rx="1.388" transform="matrix(0.578, 0.816, -0.816, 0.578, 484.327, 282.088)" fill="#6c63ff"/>
    <rect id="Rectangle_362" data-name="Rectangle 362" width="3.134" height="8.658" rx="1.388" transform="matrix(0.578, 0.816, -0.816, 0.578, 528.098, 284.486)" fill="#6c63ff"/>
    <rect id="Rectangle_363" data-name="Rectangle 363" width="3.134" height="8.658" rx="1.388" transform="matrix(0.578, 0.816, -0.816, 0.578, 560.036, 279.369)" fill="#6c63ff"/>
    <rect id="Rectangle_364" data-name="Rectangle 364" width="3.134" height="8.658" rx="1.388" transform="matrix(0.578, 0.816, -0.816, 0.578, 603.401, 282.088)" fill="#6c63ff"/>
    <rect id="Rectangle_365" data-name="Rectangle 365" width="3.134" height="8.658" rx="1.388" transform="translate(467.504 178.195) rotate(16.713)" fill="#6c63ff"/>
    <rect id="Rectangle_366" data-name="Rectangle 366" width="3.134" height="8.658" rx="1.388" transform="translate(503.405 176.568) rotate(16.713)" fill="#6c63ff"/>
    <rect id="Rectangle_367" data-name="Rectangle 367" width="3.134" height="8.658" rx="1.388" transform="translate(454.118 191.394) rotate(16.713)" fill="#6c63ff"/>
    <rect id="Rectangle_368" data-name="Rectangle 368" width="3.134" height="8.658" rx="1.388" transform="translate(383.898 194.024) rotate(16.713)" fill="#6c63ff"/>
    <rect id="Rectangle_369" data-name="Rectangle 369" width="3.134" height="8.658" rx="1.388" transform="translate(508.912 188.106) rotate(16.713)" fill="#6c63ff"/>
    <rect id="Rectangle_370" data-name="Rectangle 370" width="3.134" height="8.658" rx="1.388" transform="translate(378.032 178.195) rotate(16.713)" fill="#6c63ff"/>
    <rect id="Rectangle_371" data-name="Rectangle 371" width="3.134" height="8.658" rx="1.388" transform="translate(414.918 184.819) rotate(16.713)" fill="#6c63ff"/>
    <rect id="Rectangle_372" data-name="Rectangle 372" width="3.134" height="8.658" rx="1.388" transform="translate(392.387 281.074) rotate(16.713)" fill="#6c63ff"/>
    <rect id="Rectangle_373" data-name="Rectangle 373" width="3.134" height="8.658" rx="1.388" transform="translate(447.492 281.074) rotate(16.713)" fill="#6c63ff"/>
    <rect id="Rectangle_374" data-name="Rectangle 374" width="3.134" height="8.658" rx="1.388" transform="translate(575.441 283.688) rotate(16.713)" fill="#6c63ff"/>
    <rect id="Rectangle_375" data-name="Rectangle 375" width="3.134" height="8.658" rx="1.388" transform="translate(588.831 283.688) rotate(16.713)" fill="#6c63ff"/>
    <rect id="Rectangle_376" data-name="Rectangle 376" width="3.134" height="8.658" rx="1.388" transform="translate(429.643 194.024) rotate(16.713)" fill="#6c63ff"/>
    <ellipse id="Ellipse_29" data-name="Ellipse 29" cx="179" cy="16.1" rx="179" ry="16.1" transform="translate(167.583 577.012)" fill="#6c63ff" opacity="0.1"/>
    <ellipse id="Ellipse_30" data-name="Ellipse 30" cx="28.598" cy="2.897" rx="28.598" ry="2.897" transform="translate(128.136 522.439)" fill="#6c63ff" opacity="0.1"/>
    <ellipse id="Ellipse_31" data-name="Ellipse 31" cx="28.598" cy="2.897" rx="28.598" ry="2.897" transform="translate(93.402 594.957)" fill="#6c63ff" opacity="0.1"/>
    <ellipse id="Ellipse_32" data-name="Ellipse 32" cx="28.598" cy="2.897" rx="28.598" ry="2.897" transform="translate(626.289 586.256)" fill="#6c63ff" opacity="0.1"/>
    <ellipse id="Ellipse_33" data-name="Ellipse 33" cx="28.598" cy="2.897" rx="28.598" ry="2.897" transform="translate(609.056 616.945)" fill="#6c63ff" opacity="0.1"/>
    <ellipse id="Ellipse_34" data-name="Ellipse 34" cx="28.598" cy="2.897" rx="28.598" ry="2.897" transform="translate(547.225 567.409)" fill="#6c63ff" opacity="0.1"/>
    <ellipse id="Ellipse_35" data-name="Ellipse 35" cx="28.598" cy="2.897" rx="28.598" ry="2.897" transform="translate(449.899 634.692)" fill="#6c63ff" opacity="0.1"/>
    <path id="Path_177" data-name="Path 177" d="M601.666,467.523l-12.728,27.064s-1.875,5.078-3.086,6.021-6.557,17.014-6.557,17.014l-13.66,21.053v.011l-.932,1.436-5.357-1.479-3.75-14.035.225-4.071.032-.514s8.443-8.828,10.318-9.5c0,0,1.468.171,4.286-6.675s5.357-8.325,5.357-8.325l1.468-4.961,15.814-25.178s13.253-19.007,16.864-10.575S601.666,467.523,601.666,467.523Z" transform="translate(-183.409 -141.035)" fill="#ffd2c6"/>
    <path id="Path_178" data-name="Path 178" d="M447.7,495.969a18.519,18.519,0,0,0-1.478,4.521c-.086.4-.171.814-.268,1.243-.879,4.511-1.479,10.189-1.779,13.478-.15,1.661-.225,2.721-.225,2.721s-31.97-2.143-26.431-7.5a11.833,11.833,0,0,0,2.925-5.314q.241-.852.418-1.736a29.669,29.669,0,0,0,.5-4.05c.021-.343.032-.686.043-1.029a42.488,42.488,0,0,0-.321-6.621s10.4-.064,18.235.836C444.588,493.13,448.7,494.169,447.7,495.969Z" transform="translate(-147.065 -142.053)" fill="#d38884"/>
    <path id="Path_179" data-name="Path 179" d="M548.782,659.754a2.941,2.941,0,0,1-.429,1.3c-1.468,2.143-9.771,45.931-9.771,45.931.664,2.957-1.2,8.85-2.411,11.528s-3.889,16.607-3.889,16.607-.664,30-2.4,34.681.557,14.732.557,14.732c-.171,4.618,2.6,9.5,4.253,11.989.118.161.225.321.321.461.536.771.889,1.211.889,1.211a7.125,7.125,0,0,0,1.875,2.314c.118.1.246.193.375.289a21.462,21.462,0,0,0,7.51,3.172c.086.021.171.032.257.053,1.071.236,1.768.332,1.768.332l.664,3.621-7.093,1.468-13.521.932s-15.942,1.211-12.321-5.893a12.446,12.446,0,0,0,.654-1.5h.011c.129-.343.257-.7.364-1.061,2.175-6.825.707-15.117.707-15.117l-3.086-24.235c-5.078-22.5,4.007-47.549,4.007-47.549s-.793-2,.954-7.093,0-16.2,0-16.2-.932-14.335-2.143-21.428a43.185,43.185,0,0,1-.482-9.021,45.519,45.519,0,0,1,.482-5.282l30.535-4.05S549.146,656.925,548.782,659.754Z" transform="translate(-170.744 -218.584)" fill="#ffd2c6"/>
    <path id="Path_180" data-name="Path 180" d="M548.353,807.971l-7.093,1.468-13.521.932s-15.942,1.211-12.321-5.893a12.431,12.431,0,0,0,.654-1.5h.011c.129-.343.257-.7.364-1.061a24.748,24.748,0,0,1,8.078,1.628c4.543,1.746,7.961-2.818,7.961-2.818l2.207-4.211.321-.611c.536.771.889,1.211.889,1.211a7.225,7.225,0,0,0,2.25,2.6l-.375.782-2.143,4.511s2.743.279,6.493.879a2.912,2.912,0,0,0,3.536-1.928c.086.021.171.032.257.054,1.071.236,1.768.332,1.768.332Z" transform="translate(-171.017 -218.584)" opacity="0.1"/>
    <path id="Path_181" data-name="Path 181" d="M554.921,811.314c-.536,2.411-15.471,3.15-15.471,3.15s-8.3-.8-10.639,1.136-9.182,1.479-9.45,1.479-3.879-.139-5.293-6.621c-1.371-6.321,1.843-7.425,2-7.478h.011a24.279,24.279,0,0,1,8.443,1.639c4.543,1.746,7.961-2.818,7.961-2.818l2.528-4.821c.536.771.889,1.211.889,1.211a7.226,7.226,0,0,0,2.25,2.6l-2.518,5.293s2.743.279,6.493.879c3,.482,3.653-1.961,3.793-2.946a3.481,3.481,0,0,0,.032-.407s2.336.675,5.218,1.479a5.385,5.385,0,0,1,3.75,6.225Z" transform="translate(-171.566 -218.584)" fill="#626696"/>
    <path id="Path_182" data-name="Path 182" d="M583.045,691.671c-.354,2.143-.718,7.682-.718,7.682,1.253,4.639-1.961,15.664-1.961,15.664l-1.607,6.3c.718,8.036-4.414,27.674-4.414,27.674s-3.439,18.214-5.228,26.078a21.654,21.654,0,0,0,.932,13.135c.086.214.139.321.139.321.032.15.064.289.107.439a6.17,6.17,0,0,0,.193.632,9.526,9.526,0,0,0,1.757,2.989,8.408,8.408,0,0,0,.964.986c.021.021.032.043.053.054a19.27,19.27,0,0,0,5.689,3.5h.011l.011.011q.466.193.9.354a25.436,25.436,0,0,0,2.839.889h.011c.2.054.321.075.321.075l-.718,4.211-9.461-2.421-12.675-4.114-6.235-3.568s.064-.343.193-1c.011-.032.011-.075.021-.107.053-.279.107-.611.182-.986.975-5.528,3.4-20.989,2.186-32.378-1.511-14.1,4.361-33.567,5.8-38.206a23.107,23.107,0,0,0,1.071-8.218c-2.325-3.4-2.861-16.96-2.861-16.96s-4.286-8.753-7.832-18.042a47.319,47.319,0,0,1-2.55-9.385,32.7,32.7,0,0,1-.514-6.857s28.756-26.249,31.917-.836c.107.857.2,1.682.3,2.486C584.652,685.317,583.388,689.6,583.045,691.671Z" transform="translate(-179.496 -218.584)" fill="#ffd2c6"/>
    <path id="Path_183" data-name="Path 183" d="M583.045,798.457l-.718,4.211-9.461-2.421-12.675-4.114-6.235-3.568s.064-.343.193-1c.011-.032.011-.075.021-.107.053-.279.107-.611.182-.986l.889-.086.075-.011a11.779,11.779,0,0,1,5.3.718c2.068.771,4.768,1.661,5.325,1.286a6.7,6.7,0,0,1,3.032-.536l1.318-2.882.193-.439a9.527,9.527,0,0,0,1.757,2.989,9.338,9.338,0,0,0,1.018,1.039l-.053,1.018-.075,1.446a18.648,18.648,0,0,0,4.553,2.1,2.64,2.64,0,0,0,1.264.011h.011l.011.011q.466.193.9.354a25.427,25.427,0,0,0,2.839.889h.011C582.927,798.436,583.045,798.457,583.045,798.457Z" transform="translate(-179.985 -218.584)" opacity="0.1"/>
    <path id="Path_184" data-name="Path 184" d="M578.31,807.435c-2.636-.761-9.011-1.971-10.039-1.029s-9.868,0-9.868,0a5.375,5.375,0,0,1-4.553-2.679c-1.832-2.861-.354-12.1-.354-12.1l.654-.064,1.093-.107.075-.011a11.779,11.779,0,0,1,5.3.718c2.068.771,4.768,1.661,5.325,1.286a6.7,6.7,0,0,1,3.032-.536l1.511-3.321a9.526,9.526,0,0,0,1.757,2.989,9.349,9.349,0,0,0,1.018,1.039l-.129,2.464a18.648,18.648,0,0,0,4.553,2.1,1.839,1.839,0,0,0,2.186-.7,1.658,1.658,0,0,0,.161-.364l.011.011c.086.15.954.45,3.739,1.243h.011c3.021-.171,5.946,1.146,7.286,5.25S580.945,808.185,578.31,807.435Z" transform="translate(-180.784 -218.584)" fill="#626696"/>
    <path id="Path_185" data-name="Path 185" d="M548.782,659.754c-.589.171-1.125.332-1.629.493a23.742,23.742,0,0,1-3.943.836c-8.453,1.189-22.382.471-26.806.193a45.521,45.521,0,0,1,.482-5.282l30.535-4.05S549.146,656.925,548.782,659.754Z" transform="translate(-171.276 -175.216)" opacity="0.1"/>
    <path id="Path_186" data-name="Path 186" d="M575.417,652.34s-11.207,1.736-20.325,3.728c-3.043.664-5.861,1.361-7.939,2.036a23.733,23.733,0,0,1-3.943.836c-10.157,1.425-28.2.107-28.2.107-4.95-16.071,6.021-36.3,6.021-36.3-.257-1.607,2.282-6.557,2.282-6.557l.043-.161,1.564-5.732h41.645l.514,2.464,1.061,5.014,6.535,31.049Z" transform="translate(-173.783 -172.493)" fill="#626696"/>
    <path id="Path_187" data-name="Path 187" d="M581.867,662.079l-.247.107-4.875,2.164c-5.271,2.432-21.064,2.893-26.581,2.936a32.7,32.7,0,0,1-.514-6.857s28.756-26.249,31.917-.836C581.674,660.45,581.77,661.275,581.867,662.079Z" transform="translate(-179.297 -175.961)" opacity="0.1"/>
    <path id="Path_188" data-name="Path 188" d="M582.638,659.593l-1.018.45-4.875,2.164c-5.368,2.475-21.664,2.914-26.881,2.936-.632,0-1.1,0-1.371-.011-2.411-.075-4.821-2.336-4.821-2.925,0-.321-.246-1.907-.461-3.268-.182-1.093-.343-2.036-.343-2.036s-10.714-4.639-16.2-8.389c-4.093-2.786-3.064-22.574-2.271-32.528.279-3.428.525-5.689.525-5.689l42.159,2.464L573,613.1l3.386.75.9.193s2.421,17.678,3.621,19.146.407,6.428.268,9.246a17.461,17.461,0,0,1-.4,3.611s1.736,4.961,1.328,7.735a15.42,15.42,0,0,0,.536,5.807Z" transform="translate(-175.951 -173.448)" fill="#626696"/>
    <path id="Path_189" data-name="Path 189" d="M392.336,648.107c-10.9-.364-2.861-23.035-1.607-26.1s-1.864-10.51-1.864-10.51-3.675-21.61-3.675-23.035a57.376,57.376,0,0,0-1.243-8.753c-.536-1.961.172-6.6,1.425-8.571s1.071-9.814,1.071-9.814V551.145l2.421-3.214,6.214,5.871,1.725,1.629,3.032,11.378-1.071,16.3-.536,15.889,3.75,21.964S403.232,648.461,392.336,648.107Z" transform="translate(-138.127 -166.383)" fill="#d38884"/>
    <path id="Path_190" data-name="Path 190" d="M334.667,515.573l-9.289-3.847v-1.51L327.8,507l6.214,5.872Z" transform="translate(-77.05 -111.257)" opacity="0.1"/>
    <path id="Path_191" data-name="Path 191" d="M391.443,533.286a43.159,43.159,0,0,0-2.576,9.107,40.751,40.751,0,0,1-2.423,8.75l10.357,4.286Z" transform="translate(-138.191 -150.816)" fill="#4c4981"/>
    <path id="Path_192" data-name="Path 192" d="M391.443,533.286a43.159,43.159,0,0,0-2.576,9.107,40.751,40.751,0,0,1-2.423,8.75l10.357,4.286Z" transform="translate(-138.191 -150.816)" opacity="0.05"/>
    <path id="Path_193" data-name="Path 193" d="M473.634,758.783l-.857,1.821s-.932,6.064-.932,6.2S469.166,771,469.166,771l-6.739,1.436-2.861-.343a38.22,38.22,0,0,0-.761-4.95c-.107-.461-.214-.932-.343-1.414a37.372,37.372,0,0,0-4.7-10.66s-4.993-12.321-6.782-13.928-8.571-17.86-7.853-21.782c.386-2.164.075-9.375-.279-15.4-.289-4.907-.611-9.032-.611-9.032l16.96-10.039,1.971,3.118a.04.04,0,0,0,.011.032l1.178,1.853s-.011.354-.064.943c0,.064-.011.139-.011.214a30.737,30.737,0,0,1-1.511,7.414s-1.275,9.107,0,10.714c1.243,1.554,5.3,23.089,6.2,33.021.032.311.054.611.075.9.354,4.564,3.182,8.636,6.021,11.614l.032.032c.182.193.375.386.568.579a39.893,39.893,0,0,0,3.964,3.461Z" transform="translate(-152.616 -218.584)" fill="#d38884"/>
    <path id="Path_194" data-name="Path 194" d="M459.566,772.09l2.861.343L469.166,771s2.678-4.061,2.678-4.189.932-6.2.932-6.2l.857-1.821.107-.225a37.375,37.375,0,0,1-4.639-3.814l-.032-.032c-.161-.15-.311-.3-.471-.461,0,0,.964,5.9-4.168,8.539-2.486,1.275-4.532,2.261-5.968,2.936Z" transform="translate(-155.699 -218.584)" opacity="0.1"/>
    <path id="Path_195" data-name="Path 195" d="M474.812,759.63l-.964,2.046s-.932,6.064-.932,6.2-2.678,4.189-2.678,4.189L463.5,773.5l-3.868-.461c-.043-.782-.129-1.886-.332-3.225-.118-.814-.279-1.714-.493-2.679,1.436-.664,3.75-1.768,6.7-3.279,5.132-2.636,4.168-8.539,4.168-8.539a39.631,39.631,0,0,0,3.525,3.128C473.9,759,474.469,759.394,474.812,759.63Z" transform="translate(-155.846 -218.584)" fill="#ceddf9"/>
    <path id="Path_196" data-name="Path 196" d="M474.812,759.63l-.964,2.046s-.932,6.064-.932,6.2-2.678,4.189-2.678,4.189L463.5,773.5l-3.868-.461c-.043-.782-.129-1.886-.332-3.225a12.929,12.929,0,0,1,2.454.332s9.2,1.971,9.643-5.314c.257-4.136,1.114-5.753,1.8-6.386C473.9,759,474.469,759.394,474.812,759.63Z" transform="translate(-155.919 -218.584)" opacity="0.1"/>
    <path id="Path_197" data-name="Path 197" d="M474.136,759.15s-2.293-.513-2.74,6.764-9.643,5.312-9.643,5.312-4.509-1.116-4.553.759a17.531,17.531,0,0,0,1.205,5.044s.268,4.33,1.116,5.357.313,4.866.313,4.866.357,2.857,7.455,0c0,0,6.346-1.305,11.607-9.2.179-.268-.625-1.071,3.973-2.723s17.767-12.232,16.741-17.41a4.382,4.382,0,0,0-3.115-3.709,5.367,5.367,0,0,0-4.117.552,34.451,34.451,0,0,1-3.839,1.774,18.744,18.744,0,0,1-5.487,1.308,20.6,20.6,0,0,0-4.257.818C477.249,759.129,475.275,759.554,474.136,759.15Z" transform="translate(-157.875 -218.584)" fill="#cc8294"/>
    <path id="Path_198" data-name="Path 198" d="M422.067,709.124a12.566,12.566,0,0,0-2.582,2.978c-2.6,3.964-4.157,9.5-5.925,11.893-2.271,3.086-2.882,9.107-2.882,9.107-.6,3.953-8.968,25.049-11.25,28.8s-5.421,13.928-5.421,13.928c-1.929,2.421-1.811,6.011-1.618,7.725.043.3.075.536.1.7.032.182.053.279.053.279l-.053.1-3.1,5.261-9.846-1.361-5.089-3.461a16.507,16.507,0,0,0,1.1-2.1c2.721-6.075,4.66-16.917,4.66-16.917s2.743-12.385,2.539-15.268.8-11.785.8-11.785,7.7-23.7,10.125-27.589a11.055,11.055,0,0,0,1.864-5.089,4.027,4.027,0,0,0-.054-1.1l3.332-3.311S426.353,705.717,422.067,709.124Z" transform="translate(-138.07 -218.584)" fill="#d38884"/>
    <path id="Path_199" data-name="Path 199" d="M392.539,783.457s-.032.3-.053.793v.375l-3.1,5.261-9.846-1.361-5.089-3.461a16.507,16.507,0,0,0,1.1-2.1c2.475-.707,8.143,1.3,8.143,1.3s6.118,1.168,8.689-.707a.589.589,0,0,0,.15-.1Z" transform="translate(-135.891 -218.584)" opacity="0.1"/>
    <path id="Path_200" data-name="Path 200" d="M390.129,797.514l-9.985,2.421-9.171-6.771.471-3.814a6.986,6.986,0,0,0,1.682-1.532,6.083,6.083,0,0,0,1.329-2.754c.536-2.807,9.246.268,9.246.268s6.364,1.211,8.839-.8a15.6,15.6,0,0,0,.471,5.507,4.137,4.137,0,0,0,1.468,2.2C397.029,793.968,390.129,797.514,390.129,797.514Z" transform="translate(-135.48 -218.584)" fill="#ceddf9"/>
    <path id="Path_201" data-name="Path 201" d="M390.129,797.514l-9.985,2.421-9.171-6.771.471-3.814a6.986,6.986,0,0,0,1.682-1.532c.664-.011,1.393,0,2,.054,1.543.139,5.154,6.707,5.154,6.707,9.064.6,11.764-2.357,12.728-4.543a4.137,4.137,0,0,0,1.468,2.2C397.029,793.968,390.129,797.514,390.129,797.514Z" transform="translate(-135.48 -218.584)" opacity="0.1"/>
    <path id="Path_202" data-name="Path 202" d="M380.283,795.645s-3.616-6.562-5.156-6.7a34.252,34.252,0,0,0-3.884,0s-4.018,9.509-5.491,10.379-3.616,5.357-3.616,5.357,10.608,10.245,20.873,8.3a21.2,21.2,0,0,1,9.394,2.344c4.754,2.477,24.575.6,26.986-3.75,1.808-3.264,2.524-5.639.932-7.38a4.271,4.271,0,0,0-3.727-1.264c-2.495.342-8.09.269-13.008-5.753,0,0-9.04-8.288-9.777-8.3S394.412,796.582,380.283,795.645Z" transform="translate(-135.842 -218.584)" fill="#cc8294"/>
    <path id="Path_203" data-name="Path 203" d="M458.356,690.964a.657.657,0,0,1-.075.086c-.611.675-4.982,5.464-6.3,5.807a62.266,62.266,0,0,0-6.428,2.85s-2.679,3.578-4.821,3.75a8.324,8.324,0,0,0-1.886.5c-.289-4.907-.611-9.032-.611-9.032l16.96-10.039,1.971,3.118a.04.04,0,0,0,.011.032c.45,1.264.953,2.421,1.114,2.8Z" transform="translate(-151.293 -184.099)" opacity="0.1"/>
    <path id="Path_204" data-name="Path 204" d="M396.622,622s-6.607,8.6,0,20.029,13.571,17.142,13.571,17.142l22.5,46.606s5.893-3.214,8.035-3.393,4.821-3.75,4.821-3.75a63.466,63.466,0,0,1,6.428-2.857c1.429-.357,6.378-5.893,6.378-5.893s-2.45-5.357-1.914-6.786-1.607-5-1.607-5a29.584,29.584,0,0,1-1.429-5.536c0-1.429-2.321-4.821-2.321-4.821s-2.321-3.571-2.321-5.536-3.393-9.643-3.393-9.643l-.893-33.928Z" transform="translate(-144.135 -181.33)" fill="#ceddf9"/>
    <path id="Path_205" data-name="Path 205" d="M458.356,689.892s-4.95,5.528-6.375,5.893a62.294,62.294,0,0,0-6.428,2.85s-2.679,3.578-4.821,3.75a17.259,17.259,0,0,0-4.393,1.575c-1.918.879-3.643,1.821-3.643,1.821l-22.5-46.606a49.1,49.1,0,0,1-5.464-5.6,76.917,76.917,0,0,1-8.111-11.539,19.318,19.318,0,0,1-2.561-13.9,16.082,16.082,0,0,1,2.561-6.128l16.007-1.125,31.853-2.239.268,10.028.621,23.892s.525,1.2,1.168,2.775c.986,2.411,2.228,5.678,2.228,6.868,0,1.971,2.314,5.539,2.314,5.539s2.325,3.4,2.325,4.821a29.78,29.78,0,0,0,1.425,5.539s2.143,3.568,1.607,4.993S458.356,689.892,458.356,689.892Z" transform="translate(-144.138 -181.33)" opacity="0.05"/>
    <path id="Path_206" data-name="Path 206" d="M422.067,709.124a12.566,12.566,0,0,0-2.582,2.978c-9.718.7-21.01-4.382-23.935-5.786a4.028,4.028,0,0,0-.054-1.1l3.332-3.311S426.353,705.717,422.067,709.124Z" transform="translate(-141.595 -218.584)" opacity="0.1"/>
    <path id="Path_207" data-name="Path 207" d="M450.727,632.572s-1.425,4.993-1.961,7.135-1.607,12.685-1.607,12.685l-.621,2.946-10.2,48.621-2.218,10.575c-3.932,2.143-13.746-3.578-13.746-3.578-11.432,1.254-25.542-6.064-25.542-6.064s2.325-7.5,1.789-11.25,3.214-6.793,3.214-6.793c-.889-3.386,2.314-18.214,2.314-18.214s.718-5.528,3.4-6.964-.354-3.568-1.071-4.821c-.354-.611-.1-2.014.257-3.279a25.51,25.51,0,0,1,.814-2.432c-6.8-6.8-7.853-17.453-7.864-23.356a38.686,38.686,0,0,1,.193-4.318l14.753-2.582,32.206-5.636,3.279,10.114v.021l.825,2.539Z" transform="translate(-143.705 -182.959)" fill="#ceddf9"/>
    <path id="Path_208" data-name="Path 208" d="M447.7,495.969a18.519,18.519,0,0,0-1.478,4.521c-.086.4-.171.814-.268,1.243-3.107,2.014-5.029,2.031-9,2.031-1.371,0-2.131-2.62-3.428-2.888,0,0-1.945-7.01-2.5-1.1-3.739-.771-6.966,2.151-9.613-.4l-.043-.043c.021-.343.032-.686.043-1.029a42.484,42.484,0,0,0-.321-6.621s10.4-.064,18.235.836C444.588,493.13,448.7,494.169,447.7,495.969Z" transform="translate(-147.734 -140.275)" opacity="0.1"/>
    <path id="Path_209" data-name="Path 209" d="M455.066,483.948a19.9,19.9,0,0,1-23.9,19.489s-.011-.011-.011,0a19.894,19.894,0,1,1,23.914-19.489Z" transform="translate(-147.407 -137.506)" fill="#d38884"/>
    <path id="Path_210" data-name="Path 210" d="M444.17,515.211c-.15,1.661-.225,2.721-.225,2.721s-31.97-2.143-26.431-7.5a11.833,11.833,0,0,0,2.925-5.314L434.3,507.39s3.921,3.043,6.964,5.893A12.23,12.23,0,0,0,444.17,515.211Z" transform="translate(-146.764 -143.329)" opacity="0.1"/>
    <path id="Path_211" data-name="Path 211" d="M448.938,628.994a10.349,10.349,0,0,1-4.189-.321,7.643,7.643,0,0,1-1.7-.75c-2.679-1.607-11.6.364-11.6.364s-24.289,1.607-25.36,0c-.611-.921-4.886-.782-8.4-.5-1.425.118-2.732.257-3.621.354a16.082,16.082,0,0,1,2.561-6.128l16.007-1.125,32.206-5.636,3.279,10.114v.021C448.488,627.451,448.938,628.994,448.938,628.994Z" transform="translate(-143.432 -167.784)" opacity="0.1"/>
    <path id="Path_212" data-name="Path 212" d="M434.3,508.465l-17.429-2.857a5.172,5.172,0,0,1-3.284,2.857c-2.321.536-12.678,5.893-17.321,12.321l-4.643,6.428s-3.75,4.643-2.5,8.393,2.678,16.428,2.678,16.428l1.786,14.107s3.393,10.178,2.321,14.643.536,23.214.536,23.214l-3.571,23.214s12.142-1.607,13.214,0,25.357,0,25.357,0,8.928-1.964,11.607-.357a9.667,9.667,0,0,0,5.893,1.071s-2.143-7.321-.893-11.428.893-11.607.893-11.607,1.786-10.893.893-12.857,1.964-9.107,1.964-9.107l9.464-49.82s-1.146-8.928-6.2-11.964-10.766-3.928-13.8-6.786S434.3,508.465,434.3,508.465Z" transform="translate(-143.56 -159.584)" fill="#4c4981"/>
    <path id="Path_213" data-name="Path 213" d="M442.335,557.571v5.893l5.509,14.821,1.991,13.75s3.571,9.821,3.571,13.214,8.75,19.821,8.75,19.821,2.385,5.536,1.193,6.607S451.8,656.318,464.834,655.6s8.928-25.357,8.928-25.357l-1.786-10.714s-2.5-26.785-2.5-28.749c0,0-3.214-11.428-3.571-13.928s-2.678-15.178-2.678-15.178l-1.964-8.214Z" transform="translate(-153.314 -168.103)" fill="#d38884"/>
    <path id="Path_214" data-name="Path 214" d="M375.065,535.211l-19.419,11.116-6.027,9.107,8.035-8.169Z" transform="translate(-84.061 -119.163)" opacity="0.1"/>
    <path id="Path_215" data-name="Path 215" d="M430.237,597.436s-8.839,5.759-12.991,5.759-13.794,9.91-13.794,9.91,13.66-8.823,14.732-8.563S430.237,597.436,430.237,597.436Z" transform="translate(-143.492 -164.131)" opacity="0.1"/>
    <path id="Path_216" data-name="Path 216" d="M407.6,600.516s-8.3,7.5-6.161,8.3,13.259-8.3,13.259-8.3Z" transform="translate(-141.91 -163.694)" opacity="0.1"/>
    <path id="Path_217" data-name="Path 217" d="M444.3,573.731s-6.428,8.705-4.687,8.571,6.7-5.089,6.7-5.089Z" transform="translate(-150.442 -157.849)" opacity="0.1"/>
    <path id="Path_218" data-name="Path 218" d="M445.236,582.3s-6.964,7.9-6.7,9.909S445.236,582.3,445.236,582.3Z" transform="translate(-150.233 -159.961)" opacity="0.1"/>
    <path id="Path_219" data-name="Path 219" d="M446.977,586.253s-4.687,8.37-2.678,10.111S446.977,586.253,446.977,586.253Z" transform="translate(-151.181 -160.851)" opacity="0.1"/>
    <path id="Path_220" data-name="Path 220" d="M440.951,564.758s-3.482,5.893-.937,6.294,2.8,0,2.8,0Z" transform="translate(-150.116 -155.583)" opacity="0.1"/>
    <path id="Path_221" data-name="Path 221" d="M441.888,543.2a61.724,61.724,0,0,1-3.568,10.51,48.286,48.286,0,0,1-1.393-5.271,36.6,36.6,0,0,1,4.961-5.239Z" transform="translate(-149.71 -151.413)" opacity="0.1"/>
    <path id="Path_222" data-name="Path 222" d="M452.516,474.209a8.674,8.674,0,0,1-1.35,2.079,15.628,15.628,0,0,0-2.421,2.775c-.75,1.425-.611,3.139-.868,4.736s-1.264,3.353-2.872,3.407a6.3,6.3,0,0,1-2.357-.707,2.37,2.37,0,0,0-2.346.075,2.6,2.6,0,0,0-.75,1.768,23.719,23.719,0,0,0-.236,4.178c.011.557.043,1.1.1,1.661.171,1.789.525,3.718-.321,5.314a6.389,6.389,0,0,1-3.3,2.646,19.459,19.459,0,0,1-4.629,1.3s-.011-.011-.011,0a50.812,50.812,0,0,1-9.128.3,2.316,2.316,0,0,1-.814-.129,1.237,1.237,0,0,1-.354-.225,30.125,30.125,0,0,0,.546-5.078,19.893,19.893,0,1,1,31.113-24.1Z" transform="translate(-147.195 -137.502)" opacity="0.1"/>
    <path id="Path_223" data-name="Path 223" d="M444.193,457.317c-1.826-.187-3.547.789-5.339,1.185-3.706.819-7.5-.87-11.294-.856a20.851,20.851,0,0,0-9.281,2.769,22.317,22.317,0,0,0-6.2,4.337,10.083,10.083,0,0,0-2.945,6.809c.013,1.475.432,3.02-.134,4.382a14.116,14.116,0,0,1-1.352,2.065,6.06,6.06,0,0,0-.633,5.11c.584,1.744,1.922,3.107,3.049,4.561,2.441,3.15,3.977,6.9,6.169,10.229a30.553,30.553,0,0,0,3.217,4.082,2.145,2.145,0,0,0,.687.55,2.221,2.221,0,0,0,.813.125c4.657.131,9.484.232,13.767-1.6a6.389,6.389,0,0,0,3.3-2.644c.84-1.6.5-3.523.323-5.319a24.834,24.834,0,0,1,.132-5.839,2.662,2.662,0,0,1,.751-1.765,2.4,2.4,0,0,1,2.354-.072,6.122,6.122,0,0,0,2.348.7c1.613-.056,2.622-1.814,2.879-3.408s.113-3.306.868-4.733a15.282,15.282,0,0,1,2.421-2.771,11.368,11.368,0,0,0,2.012-10.069C451.118,461.833,447.878,457.694,444.193,457.317Z" transform="translate(-145.812 -136.657)" fill="#1e1637"/>
    <circle id="Ellipse_36" data-name="Ellipse 36" cx="17.276" cy="17.276" r="17.276" transform="translate(347.806 338.165)" fill="#ffd2c6"/>
    <path id="Path_224" data-name="Path 224" d="M529.073,502.729s1.205,16.36-2.143,20.11-12.053,10.848-12.053,10.848l2.679,11.116,15.133,1.741,17.678-18.883-4.018-4.955s-3.08-10.446-.536-15.669S529.073,502.729,529.073,502.729Z" transform="translate(-171.229 -146.875)" fill="#ffd2c6"/>
    <path id="Path_225" data-name="Path 225" d="M565.635,538.675v.011l-.932,1.436-5.357-1.479-3.75-14.035.225-4.071,1.1-1.586s5.893.139,5.636,5.5C562.314,529.161,564.992,536.885,565.635,538.675Z" transform="translate(-178.252 -147.486)" opacity="0.1"/>
    <path id="Path_226" data-name="Path 226" d="M577.281,616.191s-4.264.953-9.139,1.586c-4.95.643-10.521.964-12.825-.386-3.878-2.293-24.889-1.639-30.921-1.4-.429.011-.771.032-1.039.043l1.564-5.732h41.645l.514,2.464,5.914.343,3.386.75C576.938,615.248,577.281,616.191,577.281,616.191Z" transform="translate(-175.308 -165.791)" opacity="0.1"/>
    <path id="Path_227" data-name="Path 227" d="M555.858,520.027s5.893.134,5.625,5.491,3.214,14.6,3.214,14.6l-1.339,3.08s-1.875,7.5-.4,9.375,6.83,1.875,3.75,17.276c0,0-.666,11.518.939,15.268s1.605,12.723,4.016,16.473,5.625,12.455,5.625,12.455-17.41,3.884-21.964,1.205-32.544-1.339-32.544-1.339.134-4.687,0-5.223a4.445,4.445,0,0,1,.67-3.415c.938-1.272,2.411-3.415,1.607-5.29s2.009-4.633.536-7.539-3.27-3.481-2.907-5.069-.575-3.728-1.646-5.069-8.3-15.494-8.3-15.494l-1.205-6.605s-9.321-6.83-9.147-10.044,3.522-7.667,3.522-7.667l8.973-8.806s4.955,5.357,9.777,3.482,15.179-10.848,15.179-10.848,3.7-2.009,3.972-3.482,2.545-.134,2.545-.134,3.348-1.837,4.018-1.186,3.616,1.186,3.616,1.186Z" transform="translate(-172.405 -158.819)" fill="#ffcde5"/>
    <path id="Path_228" data-name="Path 228" d="M505.235,547.928l-2.852,2.232s-2.906,5.223-3.576,14.6-3.616,22.614-3.616,22.614l-5.625,10.063S480.325,616.841,479.119,622s-6.7,13.868-6.7,13.868S453.807,652.6,466.8,655.62,480.19,642.3,480.19,642.3s3.028-3.348,3.523-5.625,16.968-31.405,16.968-31.405,5.759-7.835,4.553-11.986c0,0,7.5-17.632,7.5-22.053a77.941,77.941,0,0,0-1.205-11.026l1.205-9.241Z" transform="translate(-159.866 -167.776)" fill="#ffd2c6"/>
    <path id="Path_229" data-name="Path 229" d="M543.8,584.847s-13.125,6.87-15.669,7.232,11.116-1.473,11.116-1.473Z" transform="translate(-172.289 -160.098)" opacity="0.1"/>
    <path id="Path_230" data-name="Path 230" d="M554.519,590.2s-17.41,5.893-25.044,4.821C529.475,595.025,548.492,598.641,554.519,590.2Z" transform="translate(-173.644 -161.022)" opacity="0.1"/>
    <path id="Path_231" data-name="Path 231" d="M555.59,592.126s-15.672,9.863-24.911,8.256c0,0,21.563,4.286,24.911,2.009l-9.643-2.679S556.662,594.048,555.59,592.126Z" transform="translate(-173.927 -162.24)" opacity="0.1"/>
    <path id="Path_232" data-name="Path 232" d="M537.534,465.121c-4.524-.913-9.553-.356-13.181,2.5-2.684,2.11-4.467,5.337-7.495,6.915a43.96,43.96,0,0,1-4.894,1.722,14.132,14.132,0,0,0-8.626,15.206c.473,2.651,1.716,5.105,2.329,7.727,1.093,4.673.131,9.566-1.055,14.216a149.786,149.786,0,0,1-14.882,36.919,3.849,3.849,0,0,0-.736,2.477,3.484,3.484,0,0,0,.911,1.585c6.191,7.152,16.263,9.608,25.717,9.932,3.484.119,7.126-.034,10.194-1.69a15.44,15.44,0,0,0,4.97-4.565,24.207,24.207,0,0,0,4.609-15.559c-.257-4.486-1.764-9.035-.63-13.383a3.574,3.574,0,0,1,.8-1.639c1.019-1.04,2.712-.767,4.158-.934,3.931-.456,6.468-4.6,6.934-8.533s-.511-7.882-.535-11.839a24.8,24.8,0,0,1,4.67-14.574c1.306-1.806,2.977-3.571,3.418-5.832.551-2.823-1.082-4.894-2.5-7.131-2.194-3.471-3.27-7.529-6.614-10.178a17.841,17.841,0,0,0-7.568-3.337Z" transform="translate(-168.006 -145.713)" opacity="0.1"/>
    <path id="Path_233" data-name="Path 233" d="M536.463,464.05c-4.524-.913-9.553-.356-13.181,2.5-2.684,2.11-4.467,5.337-7.495,6.915a43.96,43.96,0,0,1-4.894,1.722,14.132,14.132,0,0,0-8.626,15.206c.473,2.651,1.716,5.105,2.329,7.727,1.093,4.673.131,9.566-1.055,14.217a149.785,149.785,0,0,1-14.882,36.919,3.85,3.85,0,0,0-.736,2.477,3.484,3.484,0,0,0,.911,1.585c6.191,7.152,16.263,9.608,25.717,9.932,3.484.119,7.126-.034,10.194-1.69a15.44,15.44,0,0,0,4.97-4.565,24.207,24.207,0,0,0,4.609-15.559c-.257-4.486-1.764-9.035-.63-13.383a3.573,3.573,0,0,1,.8-1.639c1.019-1.04,2.712-.767,4.158-.934,3.931-.456,6.468-4.6,6.934-8.533s-.511-7.882-.535-11.839a24.8,24.8,0,0,1,4.67-14.574c1.306-1.806,2.977-3.571,3.418-5.832.551-2.823-1.082-4.894-2.5-7.131-2.194-3.471-3.27-7.529-6.614-10.178A17.84,17.84,0,0,0,536.463,464.05Z" transform="translate(-167.738 -145.448)" fill="#985c7e"/>
    <path id="Path_234" data-name="Path 234" d="M463.32,542.028c-.718,2.85,0,7.318,0,7.318-.182,1.961,0,12.857,0,12.857-5.893-1.789-20.892,1.789-20.892,1.789l-1.789-5.357a13.2,13.2,0,0,1-2.229-4.4,48.273,48.273,0,0,1-1.393-5.271,109.639,109.639,0,0,1-1.757-11.218c-.739-5.678,7.7-11.785,14.089-15.182s12,11.068,12,11.068S464.027,539.167,463.32,542.028Z" transform="translate(-151.262 -151.047)" opacity="0.1"/>
    <path id="Path_235" data-name="Path 235" d="M463.32,540.956c-.718,2.85,0,7.318,0,7.318-.182,1.961,0,12.857,0,12.857-5.893-1.789-20.892,1.789-20.892,1.789l-1.789-5.357a13.2,13.2,0,0,1-2.229-4.4,48.284,48.284,0,0,1-1.393-5.271,109.624,109.624,0,0,1-1.757-11.218c-.739-5.678,7.7-11.785,14.089-15.182s12,11.068,12,11.068S464.027,538.1,463.32,540.956Z" transform="translate(-151.262 -150.801)" fill="#4c4981"/>
    <path id="Path_236" data-name="Path 236" d="M530.679,631.5s3.441,16.071,9.154,20.446Z" transform="translate(-172.255 -172.455)" opacity="0.1"/>
    <path id="Path_237" data-name="Path 237" d="M451.985,465.15a12.333,12.333,0,0,0-1.322-2.868c.094.245.179.487.251.725a11.368,11.368,0,0,1-2.012,10.069,15.281,15.281,0,0,0-2.421,2.771c-.756,1.427-.611,3.139-.868,4.733s-1.266,3.352-2.879,3.408a6.121,6.121,0,0,1-2.348-.7,2.4,2.4,0,0,0-2.354.072,2.662,2.662,0,0,0-.751,1.765,24.839,24.839,0,0,0-.132,5.839c.172,1.8.517,3.722-.323,5.319a6.389,6.389,0,0,1-3.3,2.644c-4.284,1.831-9.111,1.73-13.767,1.6a2.219,2.219,0,0,1-.813-.125,2.143,2.143,0,0,1-.687-.55,30.558,30.558,0,0,1-3.217-4.082c-2.192-3.329-3.728-7.079-6.169-10.229-.668-.863-1.409-1.7-2.025-2.592.017.058.028.117.047.175.584,1.744,1.922,3.107,3.049,4.561,2.441,3.15,3.977,6.9,6.169,10.229a30.561,30.561,0,0,0,3.217,4.082,2.143,2.143,0,0,0,.687.55,2.22,2.22,0,0,0,.813.125c4.656.131,9.484.232,13.767-1.6a6.389,6.389,0,0,0,3.3-2.644c.84-1.6.5-3.523.323-5.319a24.84,24.84,0,0,1,.132-5.839,2.663,2.663,0,0,1,.751-1.765,2.4,2.4,0,0,1,2.354-.072,6.121,6.121,0,0,0,2.348.7c1.613-.056,2.622-1.814,2.879-3.408s.113-3.306.868-4.733a15.279,15.279,0,0,1,2.421-2.771,11.368,11.368,0,0,0,2.012-10.069Z" transform="translate(-145.822 -137.182)" opacity="0.2"/>
    <g id="Group_79" data-name="Group 79" transform="translate(320.163 332.89)" opacity="0.1">
      <path id="Path_238" data-name="Path 238" d="M503.284,493.988c-.18-.63-.388-1.253-.6-1.874C502.862,492.744,503.068,493.367,503.284,493.988Z" transform="translate(-487.896 -479.962)"/>
      <path id="Path_239" data-name="Path 239" d="M552.144,479.962a5.636,5.636,0,0,1-.074,1.519c-.442,2.261-2.112,4.026-3.418,5.832a24.8,24.8,0,0,0-4.67,14.574c.024,3.957,1,7.91.535,11.839s-3,8.077-6.934,8.533c-1.446.168-3.139-.106-4.158.934a3.574,3.574,0,0,0-.8,1.639c-1.134,4.348.373,8.9.63,13.383a24.208,24.208,0,0,1-4.609,15.559,15.441,15.441,0,0,1-4.97,4.565c-3.068,1.657-6.71,1.81-10.194,1.69-9.3-.319-19.188-2.71-25.4-9.6a2.469,2.469,0,0,0-.154,1.293,3.484,3.484,0,0,0,.911,1.584c6.191,7.152,16.263,9.608,25.716,9.932,3.484.119,7.126-.034,10.194-1.69a15.442,15.442,0,0,0,4.97-4.565,24.208,24.208,0,0,0,4.609-15.559c-.257-4.487-1.764-9.035-.63-13.383a3.575,3.575,0,0,1,.8-1.639c1.019-1.04,2.712-.767,4.158-.934,3.931-.456,6.468-4.6,6.934-8.533s-.511-7.882-.535-11.839a24.8,24.8,0,0,1,4.671-14.574c1.306-1.806,2.977-3.571,3.418-5.832a6.667,6.667,0,0,0-1-4.733Z" transform="translate(-487.896 -479.962)"/>
    </g>
    <path id="Path_240" data-name="Path 240" d="M193.051,768.625s-37.3,19.268-18.028,41.969c0,0,1.812,4.96,7.058,4.578,0,0-1.049-1.908,2.957-3.434a19.385,19.385,0,0,0,4.024-2.141,9.473,9.473,0,0,0,3.607-4.822h0s7.631-10.206,1.717-29.092c0,0,.763-5.341.1-6.2l-4.531,6.212s4.686,3.148,5.222,7.762c0,0-4.881-7.749-5.938-6.868-.215.179-2.253,3.4-2.253,3.4s8.12,5.508,8.728,12.662c0,0-4.578-10.015-9.515-11.446l-2.79,5.043s8.871,5.4,9.872,13.521c0,0-5.151-10.3-10.409-12.376l-2.075,5.33s8.549,5.437,9.336,12.2c0,0-7.154-11.3-9.729-10.945,0,0-1.61,5.008-1.4,6.546,0,0,6.045,4.042,6.152,8.012,0,0-5.58-7.047-6.438-6.581,0,0-.358,7.082,1.359,10.766,0,0-2.933-5.258-2.468-10.766a11.821,11.821,0,0,0-3.577,5.759s-1.61-3.9,3.684-7.476c0,0,.5-5.508,1.109-6.188,0,0-5.723,2.79-8.155,6.224,0,0,.894-5.115,8.656-7.655l1.967-5.4s-7.762,3.291-10.158,6.188c0,0,1.721-5.077,10.766-7.511l2.683-4.972s-6.9,2.325-10.266,4.972c0,0,2.611-4.364,11.088-6.367l2.182-3.112s-5.008,1.788-6.4,2.432-1.681.322-1.681.322a18.08,18.08,0,0,1,8.978-4.078S193.4,768.959,193.051,768.625Z" transform="translate(-61.065 -218.584)" fill="#507dbc"/>
    <path id="Path_241" data-name="Path 241" d="M823.69,742.693s-37.3,19.268-18.028,41.969c0,0,1.812,4.96,7.058,4.578,0,0-1.049-1.908,2.957-3.434a19.382,19.382,0,0,0,4.024-2.141,9.473,9.473,0,0,0,3.607-4.822h0s7.631-10.206,1.717-29.092c0,0,.763-5.341.1-6.2l-4.531,6.212s4.686,3.148,5.222,7.762c0,0-4.881-7.749-5.938-6.868-.215.179-2.253,3.4-2.253,3.4s8.12,5.508,8.728,12.662c0,0-4.578-10.015-9.515-11.446l-2.79,5.043s8.871,5.4,9.872,13.521c0,0-5.151-10.3-10.409-12.376l-2.075,5.33s8.549,5.437,9.336,12.2c0,0-7.154-11.3-9.729-10.945,0,0-1.61,5.008-1.4,6.546,0,0,6.045,4.042,6.152,8.012,0,0-5.58-7.047-6.438-6.581,0,0-.358,7.082,1.359,10.766,0,0-2.933-5.258-2.468-10.766a11.82,11.82,0,0,0-3.577,5.759s-1.61-3.9,3.684-7.476c0,0,.5-5.508,1.109-6.188,0,0-5.723,2.79-8.155,6.224,0,0,.894-5.115,8.656-7.655l1.967-5.4s-7.762,3.291-10.158,6.188c0,0,1.721-5.077,10.766-7.511l2.683-4.972s-6.9,2.325-10.266,4.972c0,0,2.611-4.364,11.088-6.367l2.182-3.112s-5.008,1.788-6.4,2.432-1.681.322-1.681.322a18.081,18.081,0,0,1,8.978-4.078S824.035,743.027,823.69,742.693Z" transform="translate(-239.049 -218.584)" fill="#507dbc"/>
    <path id="Path_242" data-name="Path 242" d="M982.118,759.529S944.823,778.8,964.09,801.5c0,0,1.812,4.96,7.058,4.578,0,0-1.049-1.908,2.957-3.434a19.388,19.388,0,0,0,4.024-2.141,9.473,9.473,0,0,0,3.607-4.822h0s7.631-10.206,1.717-29.092c0,0,.763-5.341.1-6.2l-4.531,6.212s4.686,3.148,5.222,7.762c0,0-4.881-7.749-5.938-6.868-.215.179-2.253,3.4-2.253,3.4s8.12,5.508,8.728,12.662c0,0-4.578-10.015-9.515-11.446l-2.79,5.043s8.871,5.4,9.872,13.521c0,0-5.151-10.3-10.409-12.376l-2.075,5.33s8.549,5.437,9.336,12.2c0,0-7.154-11.3-9.729-10.945,0,0-1.61,5.008-1.4,6.546,0,0,6.045,4.042,6.152,8.012,0,0-5.58-7.047-6.438-6.581,0,0-.358,7.082,1.359,10.766,0,0-2.933-5.258-2.468-10.766a11.82,11.82,0,0,0-3.577,5.759s-1.609-3.9,3.684-7.476c0,0,.5-5.508,1.109-6.188,0,0-5.723,2.79-8.155,6.224,0,0,.894-5.115,8.656-7.655l1.967-5.4S962.6,781.408,960.2,784.3c0,0,1.721-5.077,10.766-7.511l2.683-4.972s-6.9,2.325-10.266,4.972c0,0,2.611-4.364,11.088-6.367l2.182-3.112s-5.008,1.788-6.4,2.432-1.681.322-1.681.322a18.081,18.081,0,0,1,8.978-4.078S982.464,759.863,982.118,759.529Z" transform="translate(-314.105 -218.584)" fill="#507dbc"/>
    <path id="Path_243" data-name="Path 243" d="M710.7,550.255l-2.044-2.489c4.023-3.3,4.213-23.717,2.2-34.788-1.4-7.681-1.608-14.267-.649-20.135,1.527-9.343,6-16.261,13.3-20.562,15.147-8.921,24.229-33.394,24.319-33.64l3.025,1.1c-.383,1.049-9.561,25.8-25.71,35.311-10.734,6.322-14.476,18.887-11.121,37.346C715.6,521.1,716.933,545.133,710.7,550.255Z" transform="translate(-219.286 -140.933)" fill="#d4d5e0"/>
    <path id="Path_244" data-name="Path 244" d="M794.777,426.592c9.873-24.229,1.394-50.586-18.938-58.871s-44.818,4.64-54.691,28.869c-9.586,23.525-1.87,49.055,17.2,58.1a13.887,13.887,0,0,1-5.563,5.55c-4.129,1.928,9.29,3.786,9.29,3.786a23.477,23.477,0,0,1,1.268-7.433C762.964,462.346,785.425,449.542,794.777,426.592Z" transform="translate(-227.716 -121.019)" fill="#507dbc"/>
    <path id="Path_245" data-name="Path 245" d="M725.068,419.082c.454-10.46,6.771-18.762,14.325-19.132-.326-.045-.656-.076-.989-.09-7.986-.346-14.844,8.221-15.318,19.137-.46,10.6,5.269,19.512,12.912,20.338C735.862,440.127,724.609,429.662,725.068,419.082Z" transform="translate(-218.865 -122.824)" fill="#fff" opacity="0.2"/>
    <path id="Path_246" data-name="Path 246" d="M833.7,714.255l-2.044-2.489c4.023-3.3,4.213-23.717,2.2-34.788-1.4-7.681-1.608-14.267-.649-20.135,1.527-9.343,6-16.261,13.3-20.562,15.147-8.921,24.229-33.394,24.319-33.64l3.025,1.1c-.383,1.049-9.561,25.8-25.71,35.311-10.734,6.322-14.476,18.887-11.121,37.346C838.6,685.1,839.933,709.133,833.7,714.255Z" transform="translate(-249.338 -182.17)" fill="#d4d5e0"/>
    <path id="Path_247" data-name="Path 247" d="M917.777,590.592c9.873-24.229,1.394-50.586-18.938-58.872s-44.818,4.64-54.691,28.869c-9.586,23.525-1.87,49.055,17.2,58.1a13.887,13.887,0,0,1-5.563,5.55c-4.129,1.928,9.29,3.786,9.29,3.786a23.479,23.479,0,0,1,1.268-7.433C885.964,626.346,908.425,613.542,917.777,590.592Z" transform="translate(-258.965 -161.523)" fill="#507dbc"/>
    <path id="Path_248" data-name="Path 248" d="M848.068,583.082c.454-10.46,6.771-18.762,14.325-19.132-.326-.044-.656-.076-.989-.09-7.986-.346-14.844,8.221-15.318,19.136-.46,10.6,5.269,19.512,12.912,20.338C858.862,604.127,847.609,593.662,848.068,583.082Z" transform="translate(-248.185 -160.243)" fill="#fff" opacity="0.2"/>
    <path id="Path_249" data-name="Path 249" d="M645.7,397.255l-2.044-2.489c4.023-3.3,4.213-23.717,2.2-34.788-1.4-7.681-1.608-14.267-.649-20.135,1.527-9.343,6-16.261,13.3-20.562,15.147-8.921,24.229-33.394,24.319-33.64l3.025,1.1c-.383,1.049-9.561,25.8-25.71,35.311-10.734,6.322-14.476,18.887-11.121,37.346C650.6,368.1,651.933,392.133,645.7,397.255Z" transform="translate(-203.405 -102.462)" fill="#d4d5e0"/>
    <path id="Path_250" data-name="Path 250" d="M729.777,273.592c9.873-24.229,1.394-50.587-18.938-58.871s-44.818,4.64-54.691,28.869c-9.586,23.525-1.87,49.055,17.2,58.1a13.887,13.887,0,0,1-5.563,5.55c-4.129,1.928,9.29,3.786,9.29,3.786a23.481,23.481,0,0,1,1.268-7.433C697.964,309.346,720.425,296.542,729.777,273.592Z" transform="translate(-211.202 -83.233)" fill="#507dbc"/>
    <path id="Path_251" data-name="Path 251" d="M660.068,266.082c.454-10.46,6.771-18.762,14.325-19.132-.326-.045-.656-.076-.989-.09-7.986-.346-14.844,8.221-15.318,19.137-.46,10.6,5.269,19.512,12.912,20.338C670.862,287.127,659.609,276.662,660.068,266.082Z" transform="translate(-203.371 -87.914)" fill="#fff" opacity="0.2"/>
  </g>
</svg>
